<svg xmlns="http://www.w3.org/2000/svg" viewBox="0 0 1024 1024">
  <defs>
    <linearGradient id="bg" x1="128" y1="128" x2="896" y2="896" gradientUnits="userSpaceOnUse">
      <stop offset="0" stop-color="#0f4c81"/>
      <stop offset="0.55" stop-color="#0ea5b7"/>
      <stop offset="1" stop-color="#165a9f"/>
    </linearGradient>
    <linearGradient id="book" x1="244" y1="644" x2="780" y2="644" gradientUnits="userSpaceOnUse">
      <stop offset="0" stop-color="#dff8ff"/>
      <stop offset="0.55" stop-color="#ffffff"/>
      <stop offset="1" stop-color="#e7fff6"/>
    </linearGradient>
    <linearGradient id="sprout" x1="416" y1="230" x2="620" y2="760" gradientUnits="userSpaceOnUse">
      <stop offset="0" stop-color="#67e8f9"/>
      <stop offset="0.6" stop-color="#22c55e"/>
      <stop offset="1" stop-color="#1d4ed8"/>
    </linearGradient>
    <filter id="softShadow" x="-20%" y="-20%" width="140%" height="140%">
      <feDropShadow dx="0" dy="18" stdDeviation="20" flood-color="#06233d" flood-opacity="0.28"/>
    </filter>
  </defs>

  <rect x="64" y="64" width="896" height="896" rx="190" fill="url(#bg)"/>
  <circle cx="512" cy="512" r="392" fill="#ffffff" opacity="0.08"/>

  <g filter="url(#softShadow)">
    <path d="M229 617c96-36 187-19 275 50 8 7 20 7 28 0 88-69 179-86 275-50l-58 118c-74-23-148-11-222 37-9 6-21 6-30 0-74-48-148-60-222-37z"
          fill="url(#book)" opacity="0.98"/>
    <path d="M251 590c82-27 166-9 251 57V431c-74-66-150-91-229-77z"
          fill="none" stroke="#ffffff" stroke-width="34" stroke-linejoin="round"/>
    <path d="M773 590c-82-27-166-9-251 57V431c74-66 150-91 229-77z"
          fill="none" stroke="#ffffff" stroke-width="34" stroke-linejoin="round"/>
    <path d="M250 694c86-31 170-17 252 42" fill="none" stroke="#dff8ff" stroke-width="30" stroke-linecap="round"/>
    <path d="M774 694c-86-31-170-17-252 42" fill="none" stroke="#dff8ff" stroke-width="30" stroke-linecap="round"/>
  </g>

  <path d="M516 735c-55-63-58-162-9-300 11 95 29 175 68 237 19 31-13 74-59 63z"
        fill="#ffffff" opacity="0.95"/>
  <path d="M512 720c-50-108-10-248 127-421-82 57-135 125-158 205-20-61-65-118-133-169 71 105 93 200 164 385z"
        fill="url(#sprout)"/>
  <path d="M511 706c-44-97-9-227 102-377" fill="none" stroke="#ffffff" stroke-width="20" stroke-linecap="round" opacity="0.38"/>
  <path d="M478 579c-42-78-102-134-181-168" fill="none" stroke="#6ee7f8" stroke-width="24" stroke-linecap="round"/>
  <path d="M546 578c42-78 102-134 181-168" fill="none" stroke="#facc15" stroke-width="24" stroke-linecap="round"/>

  <polygon points="512,138 545,205 619,216 565,268 578,342 512,307 446,342 459,268 405,216 479,205"
           fill="#56e1e7"/>
  <polygon points="708,233 733,284 789,292 748,332 758,387 708,361 658,387 668,332 627,292 683,284"
           fill="#f8d44c"/>
  <polygon points="329,244 349,285 394,292 361,324 369,369 329,348 289,369 297,324 264,292 309,285"
           fill="#38bdf8"/>
  <polygon points="641,357 654,383 683,387 662,407 667,436 641,422 615,436 620,407 599,387 628,383"
           fill="#fde047"/>
</svg>
